# xmcd
#
# Track frame offsets:
#	150
#	14383
#	26866
#	44233
#	57308
#	73542
#	90577
#	110939
#	123378
#	140528
#	155302
#	173365
#
# Disc length: 2529 seconds
#
# Revision: 0
# Processed by: cddbd v1.5.1PL0 Copyright (c) Steve Scherf et al.
# Submitted via: audiograbber 1.83.01
#
DISCID=a709df0c
DTITLE=Travis, Randy - You And You Alone - Travis, Randy - You And You Alone
DYEAR=1998
DGENRE=Country
TTITLE0=The Hole
TTITLE1=Out Of My Bones
TTITLE2=Spirit Of A Boy, Wisdom Of A Man
TTITLE3=Only Worse
TTITLE4=One Word Song
TTITLE5=I Did My Part
TTITLE6=Horse Called Music
TTITLE7=I'm Still Here, You're Still Gone
TTITLE8=Easy To Love You
TTITLE9=Stranger In My Mirror
TTITLE10=You And You Alone
TTITLE11=Satisfied Mind
EXTD=
EXTT0=
EXTT1=
EXTT2=
EXTT3=
EXTT4=
EXTT5=
EXTT6=
EXTT7=
EXTT8=
EXTT9=
EXTT10=
EXTT11=
PLAYORDER=
